<svg width="101" height="81" viewBox="0 0 101 81" fill="none" xmlns="http://www.w3.org/2000/svg">
<g filter="url(#filter0_d_24_4)">
<path d="M44.0831 13.5603C43.9483 2.36689 57.0818 -3.75187 65.5645 3.55244L92.1114 26.4138C98.0381 31.5177 98.1483 40.6623 92.3467 45.9079L66.3604 69.403C58.0566 76.9108 44.7782 71.1113 44.6426 59.9177L44.5577 52.9489L26.3604 69.403C18.0566 76.9108 4.77818 71.1113 4.64263 59.9177L4.08306 13.5603C3.94832 2.3669 17.0818 -3.75187 25.5645 3.55244L44.1553 19.5622L44.0831 13.5603ZM38.5333 31.8923C37.9081 31.8923 37.3621 32.0786 36.8956 32.4519C36.4289 32.8251 36.0931 33.3247 35.8877 33.9499C35.6544 32.606 34.9215 31.9343 33.6895 31.9343C32.9428 31.9343 32.3455 32.1678 31.8975 32.6345C31.4496 33.0918 31.2256 33.6892 31.2256 34.4265C31.2257 34.7436 31.2913 34.9721 31.4219 35.112C31.5619 35.2519 31.7299 35.322 31.9258 35.322C32.1216 35.3219 32.2618 35.2659 32.3458 35.154C32.2711 34.986 32.2335 34.8181 32.2335 34.6501C32.2335 33.8754 32.3454 33.3384 32.5694 33.0397C32.8027 32.7318 33.1063 32.5778 33.4795 32.5778C33.8621 32.5779 34.1604 32.7415 34.3751 33.0681C34.599 33.3947 34.711 33.8286 34.711 34.3698V39.7878C34.711 41.3555 34.3802 42.14 33.7178 42.1403C33.4099 42.1403 33.1526 42.0423 32.9473 41.8464C32.7513 41.6504 32.6534 41.3608 32.6534 40.9782C32.6534 40.5864 32.6911 40.2924 32.7657 40.0964C32.7097 39.9845 32.6396 39.9048 32.5557 39.8581C32.4718 39.8022 32.3736 39.7742 32.2618 39.7741C31.7951 39.7741 31.5616 40.1336 31.5616 40.8522C31.5616 41.4121 31.748 41.8601 32.1211 42.196C32.4944 42.5413 33.05 42.7135 33.7872 42.7136C34.5338 42.7136 35.0892 42.3778 35.4532 41.7058C35.8265 41.0244 36.0137 40.1052 36.0137 38.9479V37.156C36.0137 36.2693 36.102 35.4804 36.2793 34.7897C36.382 34.3606 36.522 33.9922 36.6993 33.6843C36.8766 33.3763 37.1198 33.1191 37.4278 32.9138C37.745 32.6993 38.1135 32.5925 38.5333 32.5925C39.6159 32.5925 40.1573 33.6935 40.1573 35.8962V39.0183C40.1573 40.0541 40.3252 40.8615 40.6612 41.4401C41.0065 42.0095 41.6092 42.2936 42.4678 42.2936C43.0836 42.2936 43.578 42.0512 43.9512 41.5661C44.1406 41.3199 44.2808 41.0347 44.3741 40.7116C44.4978 40.9157 44.6483 41.0984 44.8252 41.2585C45.4225 41.7808 46.2109 42.0416 47.1905 42.0417C48.1705 42.0417 48.8991 41.7575 49.3751 41.1882C49.8604 40.6189 50.1026 39.9882 50.1026 39.2976C50.1025 38.9992 50.0045 38.8503 49.8086 38.8503C49.6781 38.8503 49.608 38.8783 49.5987 38.9343C49.5986 39.7742 49.3651 40.4136 48.8985 40.8522C48.4412 41.2814 47.9233 41.4958 47.3448 41.4958C46.7755 41.4958 46.3137 41.3462 45.959 41.0476C45.6138 40.7396 45.3985 40.2874 45.3145 39.6901C46.2198 39.6901 46.9624 39.4609 47.5411 39.0036C48.1288 38.537 48.4229 37.9535 48.4229 37.2536C48.4228 36.8245 48.2872 36.456 48.0167 36.1481C47.746 35.8308 47.3166 35.6716 46.7286 35.6716C45.9167 35.6716 45.2492 35.9612 44.7266 36.5397C44.2039 37.1091 43.9424 37.9076 43.9424 38.9343C43.9424 38.9951 43.9472 39.0549 43.9493 39.114C43.9334 40.8045 43.4968 41.6499 42.6358 41.6501C42.2811 41.6501 41.9916 41.4865 41.7676 41.1599C41.553 40.8332 41.4454 40.3994 41.4454 39.8581V35.8962C41.4454 34.6829 41.2032 33.7164 40.7178 32.9978C40.2325 32.2698 39.5039 31.9016 38.5333 31.8923ZM57.5772 33.6003C57.3625 33.6003 57.185 33.6746 57.045 33.8239C56.905 33.9639 56.8351 34.1739 56.835 34.4538V39.4196C56.7943 40.1185 56.6848 40.6382 56.504 40.9782C56.2707 41.4166 55.9862 41.6362 55.6504 41.6364C55.3985 41.6364 55.1596 41.4964 54.9356 41.2165C54.7116 40.9366 54.4413 40.4929 54.1241 39.8864L53.4376 38.6257C53.8108 37.8698 54.1941 37.2776 54.586 36.8483C54.978 36.4097 55.4311 36.1901 55.9444 36.1901C56.1587 36.19 56.2656 36.092 56.2657 35.8962C56.2657 35.747 56.1728 35.6717 55.9864 35.6716C55.6317 35.6716 55.3046 35.7329 55.0059 35.8542C54.3433 36.1249 53.7082 36.8386 53.1016 37.9958L52.8497 37.5056C52.4951 36.8525 52.1451 36.3861 51.7999 36.1061C51.4639 35.8168 51.0904 35.6716 50.6797 35.6716C50.2785 35.6716 49.9845 35.7705 49.7979 35.9665C49.6208 36.1531 49.5323 36.4095 49.5323 36.736C49.5323 37.0531 49.6252 37.2114 49.8116 37.2116C49.9142 37.2116 49.9842 37.1836 50.0215 37.1276L49.9659 36.7917C49.966 36.4186 50.1112 36.2321 50.4004 36.2321C50.5309 36.2323 50.6572 36.3119 50.7784 36.4704C50.909 36.6291 51.0772 36.9041 51.2823 37.2956L52.2764 39.1862C51.9591 39.8768 51.6643 40.4129 51.3936 40.7956C51.2164 41.0568 51.0256 41.2485 50.8204 41.3698C50.6245 41.4817 50.4423 41.5377 50.2745 41.5378C50.1158 41.5378 50.0029 41.5658 49.9376 41.6218C49.8816 41.6778 49.8536 41.7391 49.8536 41.8044C49.8537 41.8695 49.8818 41.9302 49.9376 41.986C49.9935 42.042 50.0732 42.07 50.1758 42.07C50.6985 42.07 51.1516 41.8785 51.5342 41.4958C51.9261 41.1038 52.2944 40.5623 52.6397 39.8718C53.069 40.6744 53.4845 41.2631 53.8858 41.6364C54.2964 42.0004 54.8055 42.1823 55.4122 42.1823C56.028 42.1823 56.4996 41.9303 56.8262 41.4265C56.9354 41.258 57.0231 41.0699 57.0958 40.8649C57.2039 41.0815 57.3461 41.2689 57.5215 41.4265C57.9788 41.8368 58.5992 42.0417 59.3829 42.0417C60.1667 42.0417 60.7459 41.795 61.1192 41.3005C61.5018 40.8059 61.6933 40.1803 61.6934 39.4245C61.6934 38.9302 61.6092 38.6827 61.4415 38.6823C61.3201 38.6823 61.2502 38.7103 61.2315 38.7663C61.2315 39.7275 61.0959 40.4229 60.8252 40.8522C60.5546 41.2815 60.1295 41.4958 59.5508 41.4958C59.1683 41.4957 58.8279 41.3558 58.5293 41.0759C58.2401 40.7959 58.0949 40.3996 58.0948 39.8864V36.3581H60.4893C60.4893 36.1808 60.456 36.0548 60.3907 35.9802C60.3346 35.9056 60.2087 35.8679 60.0127 35.8679H58.0948V33.7956C57.9642 33.6652 57.7916 33.6003 57.5772 33.6003ZM46.5049 36.2185C46.7942 36.2185 47.0182 36.3164 47.1768 36.5124C47.3353 36.699 47.415 36.9739 47.4151 37.3376C47.4151 37.9069 47.1999 38.3363 46.7706 38.6257C46.3506 38.915 45.8512 39.0969 45.2725 39.1716V39.0456C45.2725 38.0192 45.3661 37.2913 45.5528 36.862C45.7488 36.4327 46.0663 36.2185 46.5049 36.2185Z" fill="#52796F"/>
</g>
<defs>
<filter id="filter0_d_24_4" x="0.0820312" y="0.37738" width="100.546" height="80.4072" filterUnits="userSpaceOnUse" color-interpolation-filters="sRGB">
<feFlood flood-opacity="0" result="BackgroundImageFix"/>
<feColorMatrix in="SourceAlpha" type="matrix" values="0 0 0 0 0 0 0 0 0 0 0 0 0 0 0 0 0 0 127 0" result="hardAlpha"/>
<feOffset dy="4"/>
<feGaussianBlur stdDeviation="2"/>
<feComposite in2="hardAlpha" operator="out"/>
<feColorMatrix type="matrix" values="0 0 0 0 0 0 0 0 0 0 0 0 0 0 0 0 0 0 0.25 0"/>
<feBlend mode="normal" in2="BackgroundImageFix" result="effect1_dropShadow_24_4"/>
<feBlend mode="normal" in="SourceGraphic" in2="effect1_dropShadow_24_4" result="shape"/>
</filter>
</defs>
</svg>
