<svg width="146" height="146" viewBox="0 0 146 146" fill="none" xmlns="http://www.w3.org/2000/svg">
<g filter="url(#filter0_d_4_46)">
<path d="M73 0C111.108 0 142 30.8924 142 69C142 107.108 111.108 138 73 138C34.8924 138 4 107.108 4 69C4 30.8924 34.8924 0 73 0ZM73 4C37.1015 4 8 33.1015 8 69C8 104.899 37.1015 134 73 134C108.899 134 138 104.899 138 69C138 33.1015 108.899 4 73 4ZM110.398 69.2148L53.8311 100.919L54.1064 37.0234L110.398 69.2148Z" fill="#52796F"/>
</g>
<defs>
<filter id="filter0_d_4_46" x="0" y="0" width="146" height="146" filterUnits="userSpaceOnUse" color-interpolation-filters="sRGB">
<feFlood flood-opacity="0" result="BackgroundImageFix"/>
<feColorMatrix in="SourceAlpha" type="matrix" values="0 0 0 0 0 0 0 0 0 0 0 0 0 0 0 0 0 0 127 0" result="hardAlpha"/>
<feOffset dy="4"/>
<feGaussianBlur stdDeviation="2"/>
<feComposite in2="hardAlpha" operator="out"/>
<feColorMatrix type="matrix" values="0 0 0 0 0 0 0 0 0 0 0 0 0 0 0 0 0 0 0.25 0"/>
<feBlend mode="normal" in2="BackgroundImageFix" result="effect1_dropShadow_4_46"/>
<feBlend mode="normal" in="SourceGraphic" in2="effect1_dropShadow_4_46" result="shape"/>
</filter>
</defs>
</svg>
