<svg width="100" height="82" viewBox="0 0 100 82" fill="none" xmlns="http://www.w3.org/2000/svg">
<g filter="url(#filter0_d_24_5)">
<path d="M74.3399 4.1416C82.7272 -3.27263 95.9401 2.67548 95.9502 13.8701L95.9912 60.2295C96.0012 71.4239 82.8001 77.3959 74.3994 69.9971L56.9854 54.6592L56.9912 60.2295C57.0012 71.4239 43.8001 77.3959 35.3994 69.9971L9.1094 46.8408C3.24006 41.671 3.23195 32.5262 9.09182 27.3457L35.3399 4.1416C43.7272 -3.27263 56.9401 2.67548 56.9502 13.8701L56.9551 19.5098L74.3399 4.1416ZM33.8477 30.6885C33.6423 30.6885 33.4691 30.7628 33.3291 30.9121C33.1892 31.0521 33.1192 31.2621 33.1192 31.542V32.0742C32.41 32.2889 31.8361 32.6108 31.3975 33.04C30.9589 33.4693 30.7394 33.9032 30.7393 34.3418C30.7393 34.5751 30.8092 34.7623 30.9492 34.9023C31.0892 35.0422 31.2573 35.1123 31.4531 35.1123C31.649 35.1123 31.775 35.0561 31.8311 34.9443C31.7751 34.7763 31.7471 34.5751 31.7471 34.3418C31.7472 34.1086 31.8733 33.8661 32.125 33.6143C32.377 33.353 32.7086 33.129 33.1192 32.9424V38.9902C32.0553 40.0262 31.5235 41.053 31.5235 42.0703C31.5235 42.6208 31.6215 43.0451 31.8174 43.3438C32.0134 43.6424 32.2889 43.792 32.6436 43.792C33.2967 43.7919 33.7587 43.526 34.0293 42.9941C34.3 42.4715 34.4356 41.6642 34.4356 40.5723V38.5C34.9302 38.6959 35.4437 38.7939 35.9756 38.7939C37.142 38.7939 38.0798 38.486 38.7891 37.8701C39.4984 37.2448 39.8535 36.3815 39.8535 35.2803C39.8535 34.1791 39.4099 33.3297 38.5235 32.7324C37.6368 32.1351 36.3948 31.8316 34.7988 31.8223L34.3789 31.8359V30.8838C34.2298 30.7534 34.0527 30.6886 33.8477 30.6885ZM33.1192 39.6484C33.1192 41.1322 33.0868 42.1033 33.0215 42.5605C32.9562 43.0176 32.8249 43.2461 32.6289 43.2461C32.2932 43.2458 32.125 42.8487 32.125 42.0557C32.1251 41.2626 32.4568 40.4602 33.1192 39.6484ZM40.5156 35.6719C40.2824 35.6719 40.1187 35.7375 40.0254 35.8682V41.1885C40.0255 41.4681 40.0956 41.6828 40.2354 41.832C40.3754 41.972 40.5626 42.042 40.7959 42.042C41.0292 42.042 41.1928 41.9763 41.2862 41.8457V39.6201C41.2862 39.0695 41.4585 38.3977 41.8037 37.6045C42.1584 36.8018 42.5555 36.4004 42.9942 36.4004C43.2459 36.4005 43.4605 36.5073 43.6377 36.7217C43.8151 36.9363 43.9033 37.1752 43.9033 37.4365C43.9033 37.6976 43.8753 37.8982 43.8194 38.0381C43.894 38.1501 44.0533 38.2061 44.2959 38.2061C44.4265 38.206 44.5622 38.136 44.7022 37.9961C44.8419 37.8562 44.912 37.6695 44.9121 37.4365C44.9121 37.0072 44.7765 36.6381 44.5059 36.3301C44.2352 36.0128 43.8058 35.8545 43.2178 35.8545C42.3965 35.8545 41.7528 36.4327 41.2862 37.5898V36.5264C41.2862 36.2467 41.2159 36.0365 41.0762 35.8965C40.9362 35.7472 40.749 35.6719 40.5156 35.6719ZM55.0742 35.5176C54.4396 35.5176 53.9865 35.7564 53.7158 36.2324C53.4547 36.6991 53.3242 37.3947 53.3242 38.3184C53.3243 38.8409 53.4222 39.3825 53.6182 39.9424C53.8141 40.5021 54.1082 40.9686 54.5 41.3418C54.3228 41.4817 54.1179 41.5517 53.8848 41.5518C52.8115 41.5518 52.2744 40.6466 52.2744 38.8359V35.8682C52.1438 35.7375 51.9705 35.6719 51.7559 35.6719C51.5414 35.672 51.3645 35.7473 51.2246 35.8965C51.0847 36.0365 51.0147 36.2464 51.0147 36.5264V38.7656C51.0147 39.0474 51.0341 39.3125 51.0713 39.5605C50.9803 40.0991 50.7656 40.5304 50.4229 40.8525C49.9656 41.2816 49.4477 41.4961 48.8692 41.4961C48.2999 41.4961 47.8381 41.3465 47.4834 41.0479C47.1381 40.7399 46.9229 40.2876 46.8389 39.6904C47.7442 39.6904 48.4868 39.4612 49.0655 39.0039C49.6533 38.5373 49.9473 37.9538 49.9473 37.2539C49.9473 36.8247 49.8116 36.4564 49.541 36.1484C49.2704 35.8311 48.841 35.6719 48.253 35.6719C47.441 35.6719 46.7736 35.9614 46.251 36.54C45.7285 37.1093 45.4669 37.9072 45.4668 38.9336C45.4668 39.9509 45.7616 40.7258 46.3496 41.2578C46.9469 41.7803 47.7351 42.0419 48.7149 42.042C49.6948 42.042 50.4234 41.7577 50.8994 41.1885C51.083 40.9732 51.2306 40.7483 51.3447 40.5156C51.4549 40.7598 51.5902 40.98 51.7559 41.1738C52.2598 41.7524 52.9134 42.0419 53.7158 42.042C54.1358 42.042 54.533 41.9116 54.9063 41.6504C55.2982 41.9117 55.7654 42.042 56.3067 42.042C57.1091 42.0419 57.7067 41.7857 58.0987 41.2725C58.2379 41.0901 58.3507 40.8902 58.4405 40.6748C58.53 40.9419 58.6515 41.1743 58.8106 41.3701C59.1839 41.8181 59.7489 42.042 60.5049 42.042C61.1114 42.0419 61.611 41.7857 62.003 41.2725C62.2245 40.9824 62.3802 40.6584 62.4766 40.3027C62.6106 40.6459 62.7984 40.946 63.042 41.2021C63.5927 41.7621 64.2793 42.042 65.1006 42.042C65.9217 42.0419 66.5753 41.7297 67.0606 41.1045C67.5552 40.4792 67.8018 39.6946 67.8018 38.752C67.8018 37.8001 67.5411 37.0487 67.0186 36.498C66.4959 35.9474 65.8189 35.6719 64.9883 35.6719C64.1671 35.6719 63.4997 35.9519 62.9863 36.5117C62.509 37.0333 62.2606 37.7605 62.2354 38.6924C62.1771 38.7047 62.1416 38.7284 62.1289 38.7656C62.1289 39.727 61.975 40.4232 61.667 40.8525C61.3591 41.2817 61.0274 41.496 60.6729 41.4961C60.3182 41.4961 60.0384 41.3605 59.833 41.0898C59.6277 40.8192 59.5244 40.4177 59.5244 39.8857V35.8682C59.3938 35.7376 59.2214 35.6719 59.0069 35.6719C58.7922 35.6719 58.6146 35.7472 58.4746 35.8965C58.3348 36.0365 58.2647 36.2465 58.2647 36.5264V38.7148C58.2424 38.7281 58.2284 38.7438 58.2246 38.7656C58.2246 39.6896 58.0567 40.3762 57.7207 40.8242C57.3848 41.2721 56.9552 41.496 56.4326 41.4961C56.0406 41.4961 55.6855 41.4025 55.3682 41.2158C56.1428 40.2919 56.5303 38.9388 56.5303 37.1563C56.5303 36.6616 56.3947 36.2645 56.124 35.9658C55.8627 35.6673 55.5128 35.5176 55.0742 35.5176ZM78.6104 35.6719C77.8638 35.6719 77.2943 35.8075 76.9024 36.0781C76.5105 36.3394 76.3145 36.685 76.3145 37.1143C76.3145 37.5342 76.4404 37.8798 76.6924 38.1504C76.9443 38.421 77.2524 38.631 77.6162 38.7803C77.9896 38.9203 78.363 39.0559 78.7363 39.1865C79.623 39.4945 80.0664 39.9143 80.0664 40.4463C80.057 41.1461 79.5576 41.4961 78.5684 41.4961C77.9244 41.4961 77.4206 41.2905 77.0567 40.8799C76.8071 40.5984 76.6449 40.2662 76.5664 39.8838C76.5804 39.7369 76.5899 39.5836 76.5899 39.4238C76.5899 39.2287 76.576 39.0722 76.5498 38.9541C76.5621 38.9021 76.5767 38.8528 76.5947 38.8076L76.5664 38.7656C76.5288 38.6819 76.3888 38.6396 76.1465 38.6396C76.0159 38.6397 75.8996 38.715 75.7969 38.8643C75.6942 39.0136 75.6426 39.2191 75.6426 39.4805C75.6427 39.8784 75.7236 40.2401 75.8799 40.5684C75.8155 40.7365 75.7412 40.8786 75.6514 40.9922C75.3808 41.328 75.1008 41.4961 74.8115 41.4961C74.5223 41.496 74.294 41.3605 74.126 41.0898C73.958 40.8192 73.874 40.4177 73.874 39.8857V35.8682C73.7434 35.7375 73.5658 35.6719 73.3418 35.6719C73.1178 35.6719 72.9263 35.7472 72.7676 35.8965C72.6091 36.0365 72.5293 36.2465 72.5293 36.5264V38.668C72.5293 39.5826 72.357 40.2919 72.0117 40.7959C71.6758 41.2998 71.2979 41.5517 70.878 41.5518C70.318 41.5518 70.0381 40.9964 70.0381 39.8857V35.8682C69.9074 35.7375 69.7342 35.6719 69.5196 35.6719C69.305 35.6719 69.1273 35.7472 68.9873 35.8965C68.8476 36.0365 68.7774 36.2466 68.7774 36.5264V40.0117C68.7774 40.6651 68.9549 41.1697 69.3096 41.5244C69.6642 41.8697 70.1314 42.042 70.71 42.042C71.6805 42.0419 72.348 41.5985 72.7119 40.7119C73.0199 41.5985 73.6636 42.042 74.6436 42.042C75.2595 42.042 75.7353 41.804 76.0713 41.3281C76.1252 41.2539 76.1733 41.1747 76.2188 41.0928C76.283 41.1686 76.3517 41.2434 76.4268 41.3145C76.9587 41.7996 77.6446 42.042 78.4844 42.042C79.3336 42.042 80.015 41.8976 80.5283 41.6084C81.051 41.3097 81.3125 40.861 81.3125 40.2637C81.3124 39.8625 81.1769 39.5264 80.9063 39.2559C80.645 38.976 80.323 38.7616 79.9405 38.6123C79.5672 38.463 79.1892 38.323 78.8067 38.1924C78.4334 38.0618 78.1115 37.8981 77.8408 37.7021C77.5795 37.5061 77.4483 37.277 77.4483 37.0156C77.4484 36.7452 77.5656 36.5447 77.7988 36.4141C78.0321 36.2835 78.3261 36.2178 78.6807 36.2178C79.0353 36.2178 79.3572 36.2974 79.6465 36.4561C79.9358 36.6147 80.0801 36.7923 80.0801 36.9883C80.0801 37.1748 80.0521 37.3009 79.9961 37.3662C80.0707 37.4781 80.225 37.5341 80.458 37.5342C80.5793 37.5342 80.701 37.4825 80.8223 37.3799C80.953 37.2772 81.0186 37.1416 81.0186 36.9736C81.0184 36.6285 80.8032 36.3257 80.374 36.0645C79.9541 35.8032 79.3663 35.6719 78.6104 35.6719ZM63.5742 38.0518C63.8075 38.565 64.1758 39.0322 64.6797 39.4521C65.193 39.8721 65.7537 40.1477 66.3604 40.2783C66.2857 40.7074 66.1456 41.0198 65.9405 41.2158C65.7445 41.4025 65.4593 41.4961 65.086 41.4961C64.5447 41.496 64.1528 41.2905 63.9102 40.8799C63.6769 40.4692 63.5606 39.7878 63.5606 38.8359C63.5606 38.472 63.5649 38.2104 63.5742 38.0518ZM54.8643 36.2744C55.2376 36.2744 55.4238 36.6898 55.4238 37.5205C55.4238 39.0694 55.2471 40.1753 54.8926 40.8379C54.3233 40.2032 54.0381 39.2841 54.0381 38.0801C54.0381 36.8761 54.3136 36.2744 54.8643 36.2744ZM65.002 36.2178C65.5711 36.2178 65.9587 36.4139 66.1641 36.8057C66.3694 37.1883 66.4717 37.8653 66.4717 38.8359C66.4717 39.0879 66.463 39.3914 66.4444 39.7461C65.8004 39.5688 65.245 39.2093 64.7783 38.668C64.3117 38.1174 64.0782 37.5435 64.0781 36.9463C64.0781 36.7131 64.1666 36.5354 64.3438 36.4141C64.5304 36.2834 64.7501 36.2178 65.002 36.2178ZM48.0293 36.2178C48.3185 36.2178 48.5426 36.3159 48.7012 36.5117C48.8598 36.6984 48.9394 36.974 48.9395 37.3379C48.9395 37.9072 48.7243 38.3366 48.2949 38.626C47.875 38.9153 47.3755 39.0972 46.7969 39.1719V39.0459C46.7969 38.0195 46.8906 37.2916 47.0772 36.8623C47.2732 36.433 47.5907 36.2178 48.0293 36.2178ZM34.8135 32.5078C35.9985 32.5078 36.9084 32.7599 37.543 33.2637C38.187 33.7583 38.5088 34.4493 38.5088 35.3359C38.5088 36.2132 38.2902 36.8902 37.8516 37.3662C37.4129 37.8329 36.7499 38.0664 35.8633 38.0664C35.378 38.0664 34.8969 37.9631 34.4209 37.7578V32.5498C34.5329 32.5218 34.6642 32.5078 34.8135 32.5078ZM58.9082 32.8721C58.6751 32.8722 58.4789 32.9561 58.3203 33.124C58.1618 33.2826 58.0831 33.4787 58.083 33.7119C58.083 33.9451 58.1619 34.1412 58.3203 34.2998C58.4789 34.4584 58.6751 34.538 58.9082 34.5381C59.1416 34.5381 59.3384 34.4585 59.4971 34.2998C59.6649 34.1412 59.749 33.9451 59.749 33.7119C59.749 33.4787 59.6649 33.2826 59.4971 33.124C59.3384 32.956 59.1416 32.8721 58.9082 32.8721Z" fill="#52796F"/>
</g>
<defs>
<filter id="filter0_d_24_5" x="0.702148" y="0.856384" width="99.2891" height="80.4103" filterUnits="userSpaceOnUse" color-interpolation-filters="sRGB">
<feFlood flood-opacity="0" result="BackgroundImageFix"/>
<feColorMatrix in="SourceAlpha" type="matrix" values="0 0 0 0 0 0 0 0 0 0 0 0 0 0 0 0 0 0 127 0" result="hardAlpha"/>
<feOffset dy="4"/>
<feGaussianBlur stdDeviation="2"/>
<feComposite in2="hardAlpha" operator="out"/>
<feColorMatrix type="matrix" values="0 0 0 0 0 0 0 0 0 0 0 0 0 0 0 0 0 0 0.25 0"/>
<feBlend mode="normal" in2="BackgroundImageFix" result="effect1_dropShadow_24_5"/>
<feBlend mode="normal" in="SourceGraphic" in2="effect1_dropShadow_24_5" result="shape"/>
</filter>
</defs>
</svg>
